<?xml version="1.0" encoding="UTF-8"?>
<svg width="415" height="90" viewBox="0 0 415 90" version="1.1" xmlns="http://www.w3.org/2000/svg" role="img" aria-labelledby="logoTitle">


  <title id="logoTitle">HyperAdmin Logo</title>

  <defs>
    <color id="brandOrange">#F27A24</color>
    <color id="brandWhite">#FFFFFF</color>
    <color id="brandText">#343A40</color>
  </defs>

  <g id="icon">
    <path d="M 45,90 C 40,90 0,70 0,50 L 0,5 C 0,2.23 2.23,0 5,0 L 85,0 C 87.77,0 90,2.23 90,5 L 90,50 C 90,70 50,90 45,90 Z" fill="url(#brandOrange)"/>

    <path d="M 22,22 L 35,22 L 35,38 L 55,38 L 55,22 L 68,22 L 68,68 L 55,68 L 55,52 L 35,52 L 35,68 L 22,68 Z" fill="url(#brandWhite)"/>
  </g>

  <text x="115" y="45"
        font-family="Montserrat, -apple-system, BlinkMacSystemFont, 'Segoe UI', Roboto, Helvetica, Arial, sans-serif"
        font-size="45"
        font-weight="600"
        fill="url(#brandText)"
        dominant-baseline="middle"
        text-anchor="start">
    HyperAdmin
  </text>

</svg>
